<?xml version="1.0" encoding="iso-8859-1"?>
<!-- Generator: Adobe Illustrator 19.0.0, SVG Export Plug-In . SVG Version: 6.00 Build 0)  -->
<svg version="1.1" id="Layer_1" xmlns="http://www.w3.org/2000/svg" xmlns:xlink="http://www.w3.org/1999/xlink" x="0px" y="0px"
	 viewBox="0 0 512 512" style="enable-background:new 0 0 512 512;" xml:space="preserve">
<g>
	<g>
		<path d="M509.452,127.637C506.803,123.692,443.615,31,362,31c-50.797,0-94.45,35.904-120.817,63.972
			C235.832,58.828,204.609,31,167,31h-30c-8.284,0-15,6.716-15,15v30c0,24.507,11.814,46.305,30.047,60
			C133.814,149.695,122,171.493,122,196v30c0,8.284,6.716,15,15,15h30c37.609,0,68.832-27.828,74.183-63.972
			C267.55,205.096,311.203,241,362,241c81.615,0,144.803-92.691,147.452-96.637C512.849,139.305,512.849,132.696,509.452,127.637z
			 M212,166c0,24.813-20.187,45-45,45h-15v-15c0-24.813,20.187-45,45-45h15V166z M212,121h-15c-24.813,0-45-20.187-45-45V61h15
			c24.813,0,45,20.187,45,45V121z M362,211c-52.97,0-99.968-53.862-116.369-74.999C262.04,114.854,309.034,61,362,61
			c13.571,0,26.749,3.541,39.122,9.156C377.832,82.898,362,107.633,362,136s15.832,53.102,39.122,65.844
			C388.749,207.459,375.571,211,362,211z M434.521,180.929C410.856,179.637,392,159.981,392,136s18.856-43.637,42.521-44.929
			c20.116,15.993,35.727,34.464,43.847,44.929C470.249,146.464,454.637,164.936,434.521,180.929z"/>
	</g>
</g>
<g>
	<g>
		<circle cx="437" cy="136" r="15"/>
	</g>
</g>
<g>
	<g>
		<circle cx="315" cy="376" r="15"/>
	</g>
</g>
<g>
	<g>
		<path d="M387.452,367.637C384.803,363.692,321.615,271,240,271c-50.797,0-94.45,35.904-120.817,63.972
			C113.832,298.828,82.609,271,45,271H15c-8.284,0-15,6.716-15,15v30c0,24.507,11.814,46.305,30.047,60
			C11.814,389.695,0,411.493,0,436v30c0,8.284,6.716,15,15,15h30c37.609,0,68.832-27.828,74.183-63.972
			C145.55,445.096,189.203,481,240,481c81.615,0,144.803-92.691,147.452-96.637C390.849,379.305,390.849,372.696,387.452,367.637z
			 M90,406c0,24.813-20.187,45-45,45H30v-15c0-24.813,20.187-45,45-45h15V406z M90,361H75c-24.813,0-45-20.187-45-45v-15h15
			c24.813,0,45,20.187,45,45V361z M240,451c-52.97,0-99.968-53.862-116.369-75c16.409-21.146,63.403-75,116.369-75
			c13.571,0,26.749,3.541,39.122,9.156C255.832,322.898,240,347.633,240,376s15.832,53.102,39.122,65.844
			C266.749,447.459,253.571,451,240,451z M312.521,420.929C288.856,419.637,270,399.981,270,376
			c0-23.981,18.856-43.637,42.521-44.929c20.116,15.994,35.728,34.465,43.847,44.929
			C348.249,386.464,332.637,404.936,312.521,420.929z"/>
	</g>
</g>
<g>
	<g>
		<path d="M218.321,393.519c-5.958-3.972-9.376-10.358-9.376-17.519s3.418-13.547,9.376-17.519
			c6.894-4.596,8.756-13.909,4.16-20.801c-4.595-6.893-13.909-8.755-20.801-4.161c-14.236,9.491-22.735,25.372-22.735,42.481
			c0,17.109,8.498,32.99,22.735,42.481c6.897,4.597,16.209,2.729,20.801-4.161C227.077,407.427,225.214,398.114,218.321,393.519z"/>
	</g>
</g>
<g>
	<g>
		<path d="M340.32,153.519c-5.958-3.972-9.376-10.358-9.376-17.519s3.418-13.547,9.376-17.519c6.894-4.596,8.756-13.909,4.16-20.801
			c-4.595-6.893-13.908-8.755-20.801-4.161c-14.236,9.491-22.735,25.372-22.735,42.481s8.499,32.99,22.735,42.481
			c6.897,4.597,16.209,2.729,20.801-4.161C349.076,167.427,347.213,158.114,340.32,153.519z"/>
	</g>
</g>
<g>
</g>
<g>
</g>
<g>
</g>
<g>
</g>
<g>
</g>
<g>
</g>
<g>
</g>
<g>
</g>
<g>
</g>
<g>
</g>
<g>
</g>
<g>
</g>
<g>
</g>
<g>
</g>
<g>
</g>
</svg>
