<svg id="Capa_1" enable-background="new 0 0 512 512" height="512" viewBox="0 0 512 512" width="512" xmlns="http://www.w3.org/2000/svg"><g><path d="m299.95 442.24c18.191-21.779 35.626-55.11 35.626-101.867 0-56.512-25.454-93.428-47.229-113.76-2.819-2.632-7.363-1.87-9.151 1.547l-16.756 32.015c-1.652 3.157-6.171 3.157-7.823 0l-16.756-32.015c-1.788-3.417-6.332-4.179-9.151-1.547-21.775 20.332-47.229 57.248-47.229 113.76 0 47.169 17.744 80.675 36.108 102.44 12.038 1.151 24.961 1.776 38.411 1.776 15.538.001 30.372-.833 43.95-2.349z" fill="#f1cb86"/><path d="m288.347 226.613c-2.819-2.632-7.363-1.87-9.151 1.547l-5.318 10.161c12.28 20.552 21.698 47.677 21.698 82.052 0 20.269-3.276 38.015-8.47 53.391-10.231 30.287-38.672 50.791-70.64 50.826-.155 0-.311 0-.466 0-3.947 0-7.847-.054-11.694-.159 4.216 6.869 8.73 12.987 13.283 18.383 12.038 1.151 24.961 1.776 38.411 1.776 15.538 0 30.372-.834 43.95-2.35 18.191-21.779 35.626-55.11 35.626-101.867 0-56.511-25.454-93.428-47.229-113.76z" fill="#ecbe6b"/><path d="m503 354.772h-143.544c-4.168 25.865-19.694 48.864-42.578 62.559l-.046.028c-5.169 9.55-10.985 17.822-16.881 24.881-13.578 1.515-28.412 2.35-43.95 2.35-13.451 0-26.374-.625-38.411-1.776-16.437-19.482-32.376-48.37-35.541-88.042h-173.049c-.828 0-1.5.672-1.5 1.5v146.728c0 .828.672 1.5 1.5 1.5h494c.828 0 1.5-.672 1.5-1.5v-146.728c0-.828-.672-1.5-1.5-1.5z" fill="#daf1f4"/><path d="m503 354.772h-38.5v52.475c0 42.665-34.587 77.252-77.252 77.252h-379.748v18.501c0 .828.672 1.5 1.5 1.5h494c.828 0 1.5-.672 1.5-1.5v-146.728c0-.828-.672-1.5-1.5-1.5z" fill="#b9e4ef"/><circle cx="289.101" cy="300.743" fill="#fff" r="15.169"/><path d="m270.532 419.59h-24.007c-6.844 0-11.71-6.659-9.63-13.18l9.323-29.229c1.709-5.358 6.687-8.995 12.311-8.995 5.624 0 10.602 3.637 12.311 8.995l9.323 29.229c2.079 6.521-2.786 13.18-9.631 13.18z" fill="#f6e7c6"/><path d="m243.999 419.276c.802.205 1.648.315 2.526.315h24.007c6.844 0 11.71-6.659 9.63-13.18l-3.839-12.035c-8.271 11.144-19.492 19.769-32.324 24.9z" fill="#f4d8a5"/><path d="m333.912 315.912c1.078 7.706 1.668 15.855 1.668 24.458 0 31.6-7.96 57.07-18.75 76.99l.048-.029c26.881-16.086 43.608-45.01 43.701-76.336.001-.208.001-.417.001-.625 0-5.648-.22-11.117-.638-16.412-.358-4.543-4.144-8.046-8.7-8.046z" fill="#eab14d"/><path d="m187.439 385.583c-29.7 5.909-49.042 15.556-49.042 26.453 0 5.851 5.576 11.341 15.336 16.086 4.937-7.6 20.657-14.163 42.62-18.432-3.454-7.357-6.496-15.385-8.914-24.107z" fill="#b9e4ef"/><path d="m196.353 409.689c-21.963 4.269-37.683 10.832-42.62 18.432 14.022 6.816 36.682 12.094 63.855 14.693-7.586-8.992-15.067-19.989-21.235-33.125z" fill="#93d8e4"/><path d="m325.114 411.766c-2.625 1.992-5.373 3.852-8.236 5.565l-.046.027c-5.169 9.55-10.986 17.823-16.882 24.882 24.709-2.758 45.258-7.771 58.316-14.119-4.194-6.457-16.174-12.165-33.152-16.355z" fill="#93d8e4"/><path d="m345.074 390.779c-5.426 7.952-12.148 15.059-19.96 20.987 16.979 4.189 28.959 9.898 33.153 16.355 9.76-4.745 15.336-10.235 15.336-16.086 0-8.123-10.751-15.552-28.529-21.256z" fill="#b9e4ef"/><path d="m503 347.272h-81.337c-4.143 0-7.5 3.358-7.5 7.5s3.357 7.5 7.5 7.5h75.337v134.728h-482v-134.728h160.266c.735 6.149 1.766 12.019 3.037 17.614-3.752.88-7.324 1.825-10.678 2.826-3.969 1.184-6.227 5.362-5.042 9.331.971 3.254 3.953 5.358 7.184 5.358 2.148 0 2.58-.74 12.521-3.042 1.117 3.434 2.321 6.744 3.595 9.933-12.458 3.019-25.674 7.614-33.671 14.442-4.871-3.076-6.315-5.551-6.315-6.699 0-.414.17-.911.505-1.479 2.105-3.567.921-8.166-2.646-10.271-3.563-2.104-8.165-.921-10.271 2.646-1.717 2.908-2.587 5.971-2.587 9.104 0 26.638 59.387 35.702 85.979 38.244 26.911 2.574 56.896 2.429 83.907-.586 25.496-2.846 80.321-12.087 80.321-37.658 0-10.012-8.368-18.471-24.903-25.209 4.215-7.705 7.391-15.968 9.393-24.554h21.069c4.143 0 7.5-3.358 7.5-7.5s-3.357-7.5-7.5-7.5h-18.81c.488-7.031.116-16.924-.434-23.904-.661-8.387-7.768-14.957-16.177-14.957h-10.952c-8.034-44.7-31.643-73.105-46.825-87.281-6.444-6.016-16.829-4.256-20.914 3.552l-14.023 26.792-14.021-26.792c-4.09-7.814-14.473-9.566-20.916-3.551-4.97 4.641-9.7 9.711-14.061 15.071-2.613 3.213-2.128 7.937 1.085 10.551 3.216 2.615 7.939 2.128 10.551-1.085 3.464-4.257 7.184-8.309 11.077-12.068l15.729 30.053c4.452 8.508 16.657 8.514 21.112 0l15.729-30.052c16.874 16.312 43.262 50.785 43.262 106.772 0 44.795-16.959 75.94-31.985 94.737-24.344 2.499-50.89 2.589-74.708.518-15.225-18.865-32.401-50.15-32.401-95.255 0-24.463 4.989-47.156 14.829-67.448 1.808-3.727.252-8.213-3.476-10.021-3.729-1.807-8.214-.25-10.021 3.476-12.118 24.989-17.235 52.572-16.208 80.892h-165.106c-4.963 0-9 4.037-9 9v146.728c0 4.963 4.037 9 9 9h494c4.963 0 9-4.037 9-9v-146.728c0-4.962-4.037-9-9-9zm-180.611 75.478c1.454-.91 2.879-1.856 4.275-2.837 7.176 1.943 12.694 4.03 16.757 6.036-7.619 2.49-16.689 4.65-26.825 6.386 1.963-3.003 3.906-6.197 5.793-9.585zm43.715-10.714c0 1.147-1.442 3.62-6.303 6.692-4.528-3.886-11.074-7.338-19.585-10.33 2.71-2.767 5.248-5.687 7.602-8.74 14.85 5.521 18.286 10.707 18.286 12.378zm-14.862-88.624c.646 0 1.172.488 1.224 1.135.407 5.177.614 10.5.614 15.823-.031 19.02-6.426 36.24-17.101 50.098 6.504-21.829 8.343-45.05 6.334-67.056zm-150.178 109.84c-12.449-1.864-23.467-4.338-32.489-7.294 5.306-2.619 13.064-5.364 23.658-7.745 2.817 5.463 5.801 10.473 8.831 15.039z"/><path d="m208.854 318.352c-3.239-2.584-7.955-2.055-10.541 1.182-2.584 3.237-2.055 7.956 1.182 10.541 20.701 16.527 48.056 23.93 75.126 19.289 4.083-.7 6.825-4.577 6.126-8.659-.701-4.083-4.59-6.826-8.659-6.125-21.615 3.703-44.613-1.361-63.234-16.228z"/><path d="m311.77 300.743c0-12.5-10.169-22.669-22.669-22.669s-22.669 10.169-22.669 22.669 10.169 22.669 22.669 22.669 22.669-10.169 22.669-22.669zm-30.338 0c0-4.229 3.44-7.669 7.669-7.669s7.669 3.44 7.669 7.669-3.44 7.669-7.669 7.669-7.669-3.44-7.669-7.669z"/><path d="m256 0c-4.143 0-7.5 3.358-7.5 7.5v88.92c-10.678 3.226-18.476 13.155-18.476 24.871s7.797 21.645 18.476 24.871v36.801c0 11.495 9.352 20.847 20.847 20.847 9.468 0 17.48-6.344 20.014-15.003l.695.696c2.93 2.929 7.678 2.929 10.607 0s2.929-7.678 0-10.606l-12.666-12.666c-2.146-2.146-5.371-2.788-8.174-1.626-2.803 1.161-4.63 3.896-4.63 6.929v11.43c0 3.224-2.623 5.847-5.847 5.847s-5.847-2.623-5.847-5.847v-36.801c10.678-3.226 18.476-13.155 18.476-24.871s-7.797-21.646-18.475-24.872v-88.92c0-4.142-3.357-7.5-7.5-7.5zm10.976 121.292c0 6.052-4.924 10.975-10.976 10.975s-10.976-4.923-10.976-10.975c0-3.214 1.389-6.11 3.598-8.119.638 3.495 3.698 6.144 7.377 6.144s6.739-2.649 7.377-6.144c2.211 2.008 3.6 4.904 3.6 8.119z"/><path d="m37.334 376.965c-4.143 0-7.5 3.358-7.5 7.5s3.357 7.5 7.5 7.5h14.127c4.143 0 7.5-3.358 7.5-7.5s-3.357-7.5-7.5-7.5z"/><path d="m77.634 376.965c-4.143 0-7.5 3.358-7.5 7.5s3.357 7.5 7.5 7.5h32.914c4.143 0 7.5-3.358 7.5-7.5s-3.357-7.5-7.5-7.5z"/><path d="m477.15 482.772c4.143 0 7.5-3.358 7.5-7.5s-3.357-7.5-7.5-7.5h-32.063c-4.143 0-7.5 3.358-7.5 7.5s3.357 7.5 7.5 7.5z"/><path d="m328.08 475.272c0 4.142 3.357 7.5 7.5 7.5h86.865c4.143 0 7.5-3.358 7.5-7.5s-3.357-7.5-7.5-7.5h-86.865c-4.142 0-7.5 3.358-7.5 7.5z"/><path d="m258.528 360.687c-8.925 0-16.743 5.713-19.456 14.216l-9.322 29.228c-3.626 11.372 4.84 22.959 16.775 22.959h24.007c11.937 0 20.401-11.589 16.775-22.959l-9.322-29.229c-2.713-8.503-10.531-14.215-19.457-14.215zm12.004 51.403h-24.007c-1.766 0-3.023-1.712-2.484-3.401l9.322-29.228c.72-2.258 2.796-3.774 5.165-3.774 2.37 0 4.446 1.517 5.166 3.774l9.322 29.229c.541 1.691-.722 3.4-2.484 3.4z"/></g></svg>