<svg height="512" viewBox="0 0 50 59" width="512" xmlns="http://www.w3.org/2000/svg"><g id="018---Catch" fill="none"><path id="Rectangle-path" d="m1 40h4v6h-4z" fill="#2c3e50"/><path id="Shape" d="m26 26c-.5522847 0-1-.4477153-1-1v-3c0-2.7614237 2.2385763-5 5-5h7c1.6568542 0 2.9999999-1.3431458 2.9999999-3s-1.3431457-3-2.9999999-3h-3c-2.7614237 0-5-2.23857625-5-5v-5c0-.55228475.4477153-1 1-1s1 .44771525 1 1v5c0 1.65685425 1.3431458 3 3 3h3c2.7614237 0 5 2.2385763 5 5s-2.2385763 5-5 5h-7c-1.6568542 0-3 1.3431458-3 3v3c0 .5522847-.4477153 1-1 1z" fill="#9fc9d3"/><path id="Shape" d="m3 35c-.55228475 0-1-.4477153-1-1v-7c0-14.9116882 12.0883118-27 27-27h3c.5522847 0 1 .44771525 1 1s-.4477153 1-1 1h-3c-13.8071187 0-25 11.1928813-25 25v7c0 .5522847-.44771525 1-1 1z" fill="#35495e"/><path id="Shape" d="m28.5 37c-1.9329966 0-3.5-1.5670034-3.5-3.5v-4.5c0-.5522847.4477153-1 1-1s1 .4477153 1 1v4.5c0 .8284271.6715729 1.5 1.5 1.5s1.5-.6715729 1.5-1.5v-2.5c-.0023626-.4062651.2413038-.77358.6165185-.929371.3752147-.1557909.807391-.0690889 1.0934815.219371l1 1c.2884599.2860905.3751619.7182668.219371 1.0934815-.155791.3752147-.5231059.6188811-.929371.6165185v.5c.0026659.9290724-.3652268 1.8208609-1.022183 2.477817-.6569561.6569562-1.5487446 1.0248489-2.477817 1.022183z" fill="#95a5a5"/><circle id="Oval" cx="26" cy="27" fill="#7f8c8d" r="3"/><path id="Shape" d="m3 59c-1.65685425 0-3-1.3431458-3-3v-10c0-.5522847.44771525-1 1-1h4c.55228475 0 1 .4477153 1 1v10c0 1.6568542-1.34314575 3-3 3z" fill="#7f6e5d"/><rect id="Rectangle-path" fill="#7f6e5d" height="8" rx="1" width="6" y="33"/><path id="Shape" d="m10 42c-2.76142375 0-5-2.2385763-5-5s2.23857625-5 5-5c2.7614237 0 5 2.2385763 5 5s-2.2385763 5-5 5zm0-8c-1.65685425 0-3 1.3431458-3 3s1.34314575 3 3 3c1.6568542 0 3-1.3431458 3-3s-1.3431458-3-3-3z" fill="#7f8c8d"/><path id="Shape" d="m41.68 58.94c-1.25-.49-1.56-.71-2-.53l-1.36.53c-.3342662.118496-.7062887.051084-.9777228-.1771674s-.4016703-.5831933-.3422772-.9328326v-2.33c-.126616-1.7911614 1.2105463-3.3511841 3-3.5 1.7894537.1488159 3.126616 1.7088386 3 3.5v2.33c.0593931.3496393-.0708431.7045812-.3422772.9328326s-.6434566.2956634-.9777228.1771674z" fill="#f29c1f"/><path id="Shape" d="m45.84 41.35 1.65.69c1.5531302.6994727 2.5402858 2.2568975 2.51 3.96v1c.0147465.3789924-.1861838.7337084-.5188269.9159206-.3326432.1822122-.7397395.1605553-1.0511731-.0559206-.8792016-.6868326-1.9063647-1.1593276-3-1.38z" fill="#f29c1f"/><path id="Shape" d="m34.65 46.4c.9181473 2.2793659 2.3047367 4.3405122 4.07 6.05.33397.349679.7964596.5475026 1.28.5475026s.94603-.1978236 1.28-.5475026c2.5-2.45 4.72-5.91 4.72-9.45s-2.22-7-4.72-9.45c-.33397-.349679-.7964596-.5475026-1.28-.5475026s-.94603.1978236-1.28.5475026c-1.52 1.52-3.93 4.38-4.56 7.78z" fill="#f0c419"/><circle id="Oval" cx="41" cy="40" fill="#35495e" r="1"/><path id="Shape" d="m35.23 42.21c-.0576576-.2955925-.2454625-.5494582-.5112486-.6910815-.265786-.1416232-.5812445-.1559197-.8587514-.0389185l-1.35.57c-1.5551757.691757-2.5442433 2.2482578-2.51 3.95v1c-.0147465.3789924.1861838.7337084.5188269.9159206.3326432.1822122.7397395.1605553 1.0511731-.0559206.9750149-.7670211 2.1330518-1.2667692 3.36-1.45.2725111-.0340764.5190139-.1787281.681668-.4000133s.227142-.4997256.178332-.7699867z" fill="#f29c1f"/></g></svg>