<svg viewBox="-15 0 512 512" xmlns="http://www.w3.org/2000/svg"><path d="m426.191406 307.890625h-85.539062c35.859375-56.863281 54.019531-108.464844 54.019531-153.679687 0-85.03125-69.160156-154.210938-154.171875-154.210938s-154.171875 69.179688-154.171875 154.210938c0 45.214843 18.160156 96.820312 54.019531 153.679687h-85.539062l-54.808594 204.109375h481zm-185.691406-225.414063c44.101562 0 79.980469 35.886719 79.980469 80 0 44.109376-35.878907 80-79.980469 80s-79.980469-35.890624-79.980469-80c0-44.113281 35.878907-80 79.980469-80zm-162.691406 255.414063h82.699218c25.863282 36.113281 50.976563 64.433594 79.992188 93.109375 28.21875-27.894531 52.605469-54.867188 79.996094-93.109375h82.699218l38.695313 144.109375h-402.78125zm0 0"/></svg>