<svg height="511pt" viewBox="-18 0 511 511.93744" width="511pt" xmlns="http://www.w3.org/2000/svg"><path d="m107.976562 283.769531c-4.875 0-8.828124-3.953125-8.828124-8.828125 0-28.449218 42.195312-34.425781 78.953124-36.535156 3.152344-.179688 6.164063 1.339844 7.890626 3.984375 1.730468 2.640625 1.917968 6.007813.496093 8.828125-1.425781 2.820312-4.246093 4.664062-7.398437 4.839844-54.191406 3.019531-62.285156 13.144531-62.285156 18.882812 0 4.875-3.953126 8.828125-8.828126 8.828125zm0 0" fill="#cbb292"/><path d="m187.421875 246.695312c.144531 2.339844-.648437 4.644532-2.203125 6.398438-1.558594 1.757812-3.75 2.820312-6.09375 2.957031-10.679688.617188-19.597656 1.5-27.011719 2.558594v-17.832031c8.5625-1.144532 17.390625-1.851563 25.953125-2.382813 4.859375-.242187 9.015625 3.445313 9.355469 8.300781zm0 0" fill="#3d324c"/><path d="m475.996094 224.800781c-7.855469 141.769531-156.160156 255.117188-287.25 283.71875l-5.03125 1.058594c-4.234375.796875-8.472656 1.589844-12.710938 2.296875-4.15625.492188-8.109375-1.941406-9.539062-5.875-1.433594-3.9375.03125-8.339844 3.535156-10.632812 63.558594-42.285157 151.304688-91.542969 189-158.71875 32.132812-57.027344 49.347656-130.738282 10.859375-189.265626-15.542969-22.078124-37.570313-38.769531-63.03125-47.757812-17.78125-6.515625-36.269531-10.902344-55.082031-13.0625 2.144531-19.4375 10.902344-37.542969 24.804687-51.289062 17.742188-16.773438 42.105469-22.863282 66.558594-25.953126-2.207031-.441406-4.5-.796874-6.707031-1.148437-2.03125-.351563-4.148438-.617187-6.179688-.882813 13.953125 1.253907 27.621094 4.679688 40.519532 10.152344 55.878906 23.835938 92.421874 80.683594 104.78125 138.152344 4.949218 22.714844 6.789062 45.996094 5.472656 69.207031zm0 0" fill="#2fa8cc"/><path d="m.550781 378.550781c2.074219 14.027344 21.046875 17.65625 32.203125 19.507813 19.566406 2.878906 39.28125 4.59375 59.050782 5.128906 52.304687 2.167969 104.699218.058594 156.660156-6.308594.699218-.082031 1.367187-.320312 1.960937-.691406 27.929688-17.15625 51.171875-40.96875 67.644531-69.304688.722657-1.351562.722657-2.976562.007813-4.332031s-2.058594-2.269531-3.582031-2.4375c-39.671875-2.492187-79.480469-1.578125-118.996094 2.734375-110.769531 9.28125-198.117188 34.242188-194.949219 55.703125zm0 0" fill="#ff5364"/><path d="m305.09375 346.710938c-15.117188 19.605468-33.621094 36.347656-54.640625 49.433593-.582031.386719-1.246094.628907-1.941406.707031-51.972657 6.351563-104.375 8.476563-156.691407 6.355469-19.769531-.554687-39.488281-2.265625-59.054687-5.121093-11.035156-1.851563-29.925781-5.472657-32.132813-19.332032zm0 0" fill="#df4d60"/><path d="m338.109375 9.320312c-24.453125 3.089844-48.816406 9.179688-66.558594 25.953126-13.902343 13.746093-22.660156 31.851562-24.804687 51.289062-.355469 2.027344-.621094 4.058594-.882813 6.179688.140625 19.644531-15.664062 35.6875-35.3125 35.839843-7.027343.011719-13.890625-2.113281-19.683593-6.09375-4.769532 14.035157-26.660157 24.101563-42.109376 24.101563-13.945312 0-34.867187-6.003906-40.519531-18.007813-1.410156-3.089843-6.617187-1.414062-9.003906-.621093-3.660156 1.710937-7.730469 2.355468-11.738281 1.855468-12.183594-2.207031-17.390625-17.039062-17.746094-28.160156.171875-11.742188 2.507812-23.355469 6.886719-34.25 4.230469-12.074219 11.140625-23.027344 20.214843-32.046875 2.382813-2.203125 4.769532-4.234375 7.328126-6.265625 29.570312-22.863281 68.058593-27.277344 104.078124-28.691406 38.96875-1.40625 77.980469.871094 116.523438 6.800781.152344-.015625.304688.015625.441406.085937 2.03125.265626 4.148438.53125 6.179688.882813 2.207031.351563 4.5.707031 6.707031 1.148437zm0 0" fill="#b0d3f0"/><path d="m434.15625 224.800781c-7.59375 136.652344-145.570312 246.820313-272.863281 280.277344-1.027344-3.699219.476562-7.640625 3.707031-9.710937 63.558594-42.285157 151.304688-91.542969 189-158.71875 32.132812-57.027344 49.347656-130.738282 10.859375-189.265626-15.542969-22.078124-37.570313-38.769531-63.03125-47.757812-17.78125-6.515625-36.269531-10.902344-55.082031-13.0625 2.144531-19.4375 10.902344-37.542969 24.804687-51.289062 12.089844-10.773438 26.789063-18.199219 42.636719-21.539063 3.355469 1.148437 6.53125 2.382813 9.710938 3.707031 55.878906 23.835938 92.425781 80.683594 104.78125 138.152344 4.949218 22.714844 6.789062 45.996094 5.476562 69.207031zm0 0" fill="#90bae1"/><path d="m249.214844 361.894531c-4.875 0-8.824219-3.953125-8.824219-8.828125 0-2.101562-.753906-51.554687-44.140625-51.554687s-44.136719 49.4375-44.136719 51.554687c0 4.875-3.953125 8.828125-8.828125 8.828125s-8.828125-3.953125-8.828125-8.828125c0-23.933594 12.914063-69.191406 61.792969-69.191406s61.792969 45.257812 61.792969 69.191406c0 4.875-3.949219 8.828125-8.828125 8.828125zm0 0" fill="#35495e"/><path d="m213.90625 211.824219v61.335937c.0625 4.742188-1.765625 9.316406-5.074219 12.710938-3.3125 3.398437-7.835937 5.339844-12.582031 5.402344-4.742188-.0625-9.265625-2.003907-12.578125-5.402344-3.3125-3.394532-5.136719-7.96875-5.074219-12.710938v-61.335937" fill="#2c3e50"/><path d="m213.90625 255.960938c-3.152344.015624-6.078125-1.652344-7.667969-4.375-1.589843-2.722657-1.605469-6.085938-.042969-8.828126 1.5625-2.738281 4.46875-4.433593 7.621094-4.449218 8.777344-.089844 17.542969-.089844 26.132813-.089844 27.992187 0 35.617187-35.46875 35.925781-36.976562.976562-4.78125 5.640625-7.863282 10.417969-6.886719 4.777343.972656 7.859375 5.636719 6.886719 10.414062-3.53125 17.65625-19.226563 51.148438-53.230469 51.148438-8.140625.160156-17.25 0-25.953125.089843zm0 0" fill="#fac176"/><path d="m240.390625 238.21875v17.65625h-.441406c-8.121094.175781-17.214844 0-25.953125.085938h-.089844c-3.152344.015624-6.078125-1.652344-7.667969-4.375-1.589843-2.722657-1.605469-6.085938-.042969-8.828126 1.5625-2.738281 4.46875-4.433593 7.621094-4.449218 8.742188-.089844 17.570313-.089844 26.132813-.089844zm0 0" fill="#7d6599"/><path d="m222.734375 194.167969c0 14.628906-11.855469 26.484375-26.484375 26.484375-14.625 0-26.480469-11.855469-26.480469-26.484375 0-14.625 11.855469-26.480469 26.480469-26.480469 14.628906 0 26.484375 11.855469 26.484375 26.480469zm0 0" fill="#fac176"/></svg>