<?xml version="1.0" encoding="iso-8859-1"?>
<!-- Generator: Adobe Illustrator 19.0.0, SVG Export Plug-In . SVG Version: 6.00 Build 0)  -->
<svg version="1.1" id="Layer_1" xmlns="http://www.w3.org/2000/svg" xmlns:xlink="http://www.w3.org/1999/xlink" x="0px" y="0px"
	 viewBox="0 0 511.998 511.998" style="enable-background:new 0 0 511.998 511.998;" xml:space="preserve">
<g>
	<g>
		<path d="M505.209,410.348c-1.869-13.628-17.338-22.825-47.293-28.119c-24.974-4.413-59.462-6.006-99.743-4.609
			c-4.77,0.166-8.503,4.167-8.337,8.937s4.182,8.503,8.937,8.337c39.089-1.357,72.333,0.149,96.135,4.356
			c26.342,4.655,32.88,11.284,33.176,13.448c0.468,3.407-9.559,17.097-60.049,34.718c-43.668,15.24-102.811,28.45-166.535,37.195
			c-64.623,8.874-125.748,12.053-172.115,8.947c-4.768-0.32-8.882,3.283-9.2,8.045c-0.318,4.762,3.284,8.882,8.045,9.2
			c11.939,0.8,24.817,1.195,38.451,1.195c40.614,0,87.945-3.504,137.169-10.263c64.827-8.898,125.158-22.393,169.879-38
			C484.337,446.073,507.718,428.61,505.209,410.348z"/>
	</g>
</g>
<g>
	<g>
		<path d="M417.917,156.781c-2.685-2.585-6.722-3.158-10.02-1.423c-0.264,0.139-26.893,13.985-63.935,18.855
			c-20.944,2.753-40.712,2.169-59.224-1.701c26.49-8.905,45.632-33.954,45.632-63.406c0-11.664-3.01-23.002-8.73-33.055
			c3.525-10.794,8.391-32.346-1.096-50.237c-7.038-13.274-20.165-21.667-39.014-24.948c-21.07-3.665-40.867,4.944-61.821,14.061
			c-25.048,10.899-50.95,22.17-81.109,12.71c-2.982-0.935-6.236-0.18-8.511,1.963c-2.275,2.143-3.214,5.356-2.458,8.389
			c0,0,0.071,0.285,0.217,0.819c6.303,23.131,22.726,41.51,45.062,50.422c8.23,3.284,16.759,5.052,25.264,5.359
			c-1.046,4.726-1.586,9.575-1.586,14.518c0,5.631,0.708,11.099,2.023,16.327c-55.248-34.484-104.919-10.618-131.051,8.21
			c-3.042,2.193-4.323,6.097-3.172,9.666c1.152,3.569,4.474,5.987,8.225,5.987c18.602,0,64.493,2.75,88.796,28.224
			c10.839,11.363,15.912,26.132,15.075,43.901c-0.225,4.768,3.458,8.815,8.226,9.038c4.758,0.224,8.814-3.458,9.038-8.226
			c1.067-22.672-5.606-41.73-19.834-56.645c-19.392-20.326-48.973-28.491-72.636-31.665c28.687-12.797,65.377-15.144,104.35,18.079
			c38.448,32.775,87.064,46.381,140.583,39.346c14.614-1.921,27.687-5.11,38.454-8.417c-19.324,17.116-54.776,36.135-113.851,29.35
			c-4.754-0.546-9.027,2.858-9.572,7.599c-0.327,2.851,0.779,5.531,2.739,7.338c0.018,0.018,0.032,0.042,0.052,0.059
			c0.18,0.164,16.741,15.369,32.697,43.604c-4.117-0.895-8.246-1.723-12.378-2.42c-4.709-0.794-9.165,2.378-9.959,7.084
			c-0.794,4.706,2.377,9.165,7.084,9.959c8.528,1.439,17.055,3.366,25.422,5.686c3.434,7.819,6.751,16.566,9.663,26.192
			c-7.951,5.253-19.379,7.203-26.278,7.728c-11.129-12.219-24.215-22.418-39.395-28.11c-11.273-4.227-22.367-3.148-32.085,3.123
			c-11.685,7.539-21.617,22.836-29.69,45.632c-10.68-1.182-19.184-5.188-23.725-7.774c1.384-14.522,4.345-30.294,9.487-47.165
			c10.256-3.122,40.549-10.894,80.838-8.304c4.788,0.309,8.873-3.307,9.178-8.071c0.307-4.763-3.307-8.872-8.069-9.178
			c-32.675-2.098-59.12,2.12-75.096,5.843c0.307-0.786,0.595-1.565,0.91-2.355c2.933-7.331,5.321-14.505,7.098-21.324
			c1.203-4.618-1.565-9.338-6.183-10.542c-4.618-1.203-9.338,1.565-10.542,6.183c-1.595,6.121-3.755,12.601-6.419,19.263
			c-23.824,59.55-21.49,108.26-15.336,138.637c0.255,1.258,0.521,2.489,0.791,3.706c-41.01,9.347-75.788,20.135-100.98,31.346
			C19.268,450.175,4.785,464.155,6.79,478.753c2.048,14.969,20.625,24.654,56.793,29.608c0.398,0.054,0.793,0.081,1.183,0.081
			c4.252,0,7.959-3.14,8.551-7.47c0.648-4.728-2.661-9.086-7.39-9.733c-33.427-4.578-41.662-12.256-42.014-14.831
			c-0.338-2.459,5.145-11.669,34.183-24.593c24.321-10.825,58.237-21.301,98.44-30.433c6.544,20.611,14.141,32.177,14.551,32.794
			c1.629,2.444,4.35,3.85,7.191,3.85c0.741,0,1.49-0.096,2.23-0.293c3.578-0.955,6.15-4.085,6.394-7.779
			c0.573-8.66,1.853-21.408,3.98-35.714c19.299-3.679,39.318-6.956,59.613-9.745c21.459-2.943,42.755-5.274,63.413-6.955
			c7.044,17.005,10.519,29.745,10.565,29.915c1.066,3.968,4.777,6.637,8.881,6.384c4.102-0.253,7.456-3.361,8.024-7.43
			c9.775-69.982-8.482-123.743-25.518-156.518c-8.684-16.707-17.867-29.751-25.268-38.98c1.326,0.025,2.661,0.058,3.961,0.058
			c44.297-0.001,74.058-14.25,92.063-27.379c23.464-17.109,32.715-36.05,33.098-36.849
			C421.326,163.38,420.601,159.365,417.917,156.781z M179.32,73.174c-12.616-5.034-22.789-13.974-29.246-25.398
			c29.058,3.657,54.06-7.222,76.534-17.002c19.313-8.404,35.99-15.662,51.962-12.882c13.289,2.313,22.265,7.685,26.68,15.967
			c5.644,10.589,3.508,24.253,1.092,33.057c-33.186-15.927-59.43-7.962-76.114,2.162C214.803,78.436,196.248,79.93,179.32,73.174z
			 M213.877,109.104c0-5.587,0.918-11.007,2.708-16.174c7.861-1.73,15.49-4.757,22.61-9.076
			c20.597-12.499,43.337-11.522,67.588,2.903c0.417,0.248,0.855,0.448,1.302,0.621c3.283,6.735,5.003,14.136,5.003,21.727
			c-0.001,27.353-22.254,49.605-49.606,49.605C236.13,158.709,213.877,136.457,213.877,109.104z M178.383,385.714
			c-2.234,10.956-3.942,21.518-5.229,30.768c-4.708-14.774-8.922-34.987-8.739-59.684c5.239,2.285,11.849,4.516,19.476,5.705
			C181.914,369.683,180.076,377.417,178.383,385.714z M248.146,387.37c-18.4,2.528-36.577,5.455-54.218,8.714
			c6.362-33.91,17.252-70.466,34.253-81.436c5.151-3.324,10.44-3.79,16.646-1.462c27.59,10.346,47.664,40.432,59.644,63.85
			c0.651,1.271,1.28,2.535,1.898,3.794C287.324,382.487,267.801,384.674,248.146,387.37z M326.797,383.577
			c-5.986-13.476-13.928-28.697-23.962-42.805c5.699-1.142,12.182-3.018,18.254-6.091
			C324.349,349.386,326.514,365.72,326.797,383.577z"/>
	</g>
</g>
<g>
	<g>
		<path d="M257.307,92.688c-3.183-1.936-7.33-1.598-10.156,0.825c-5.976,5.124-2.161,15.188,5.648,15.188
			c3.914,0,7.398-2.746,8.362-6.523C262.086,98.563,260.499,94.629,257.307,92.688z"/>
	</g>
</g>
<g>
	<g>
		<path d="M303.736,90.685c-3.219-1.706-7.254-1.188-9.934,1.279c-5.663,5.213-1.816,14.985,5.86,14.985
			c4.152,0,7.812-3.077,8.515-7.168C308.8,96.157,306.991,92.41,303.736,90.685z"/>
	</g>
</g>
<g>
	<g>
		<path d="M290.454,118.406l-25.963,1.334c-3.034,0.156-5.07,3.245-3.947,6.069c2.805,7.051,9.863,11.865,17.863,11.454
			c8.022-0.413,14.564-5.955,16.611-13.287C295.828,121.076,293.462,118.252,290.454,118.406z"/>
	</g>
</g>
<g>
</g>
<g>
</g>
<g>
</g>
<g>
</g>
<g>
</g>
<g>
</g>
<g>
</g>
<g>
</g>
<g>
</g>
<g>
</g>
<g>
</g>
<g>
</g>
<g>
</g>
<g>
</g>
<g>
</g>
</svg>
